<svg xmlns="http://www.w3.org/2000/svg" version="1.1" xmlns:xlink="http://www.w3.org/1999/xlink" width="1500" height="1500" viewBox="0 0 1500 1500"><rect width="1500" height="1500" x="0" y="0" id="background" stroke="transparent" fill="#000000"></rect><svg xml:space="preserve" width="1000" height="1000" data-version="2" data-id="lg_LGZQYC81z5tuBW3ax5" viewBox="0 0 796 796" x="250" y="250"><rect width="100%" height="100%" fill="transparent"></rect><path fill="#8e8e8e" d="M393.12 778.388C180.513 778.222 8.174 605.971 7.901 393.364 8.067 180.63 180.386 8.174 393.121 7.852c212.734.322 385.053 172.778 385.219 385.512-.274 212.568-172.554 384.81-385.122 385.024m0-703.389c-175.706.215-318.062 142.66-318.17 318.365 0 175.715 142.455 318.17 318.17 318.17s318.17-142.455 318.17-318.17c-.166-175.676-142.494-318.091-318.17-318.365"></path><path fill="#8e8e8e" d="M612.618 301.72a31.915 31.915 0 0 0-44.895 8.49l-56.802 82.861-39.43-57.192-1.951-3.221-24.79-35.818-12.298-18.251-12.395 18.25-9.174 13.371h-.195l-56.802 82.861-39.04-57.192-39.331-57.29-12.395 18.348-24.888 36.307-1.854 2.635-71.54 104.04a32.403 32.403 0 1 0 53.777 36.11l56.802-82.665 39.235 57.192 2.05 3.124 24.691 35.72 12.395 18.251 12.395-17.958 9.077-13.664h.293l56.607-82.665 39.332 57.192 39.332 57.095 12.394-17.958 24.888-36.599 1.854-2.538 71.344-103.941a32.5 32.5 0 0 0-8.783-44.896"></path></svg></svg>