<svg xmlns="http://www.w3.org/2000/svg" version="1.1" xmlns:xlink="http://www.w3.org/1999/xlink" width="1500" height="758" viewBox="0 0 1500 758"><svg xml:space="preserve" width="1500" height="758" data-version="2" data-id="lg_LGZQYC81z5tuBW3ax5" viewBox="0 0 758 758" x="0" y="0"><rect width="100%" height="100%" fill="transparent"></rect><path d="M374.353 741.257C171.879 741.099 7.755 577.058 7.495 374.585 7.653 171.99 171.76 7.755 374.353 7.448c202.594.307 366.7 164.542 366.858 367.137-.26 202.436-164.329 366.467-366.765 366.672m0-669.862c-167.33.204-302.902 135.859-303.004 303.19 0 167.34 135.664 303.004 303.004 303.004S677.45 541.925 677.45 374.585c-.158-167.303-135.701-302.93-303.004-303.19"></path><path d="M583.389 287.308a30.393 30.393 0 0 0-42.756 8.087l-54.094 78.91-37.55-54.465-1.86-3.068-23.608-34.11-11.71-17.382-11.805 17.381-8.737 12.734h-.186l-54.094 78.91-37.179-54.465-37.457-54.56-11.804 17.474-23.701 34.576-1.766 2.51-68.13 99.08a30.858 30.858 0 1 0 51.214 34.39l54.094-78.725 37.364 54.466 1.952 2.974 23.516 34.019 11.804 17.38 11.804-17.102 8.644-13.012h.279l53.908-78.725 37.458 54.466 37.457 54.373 11.804-17.102 23.701-34.854 1.766-2.417 67.944-98.987a30.951 30.951 0 0 0-8.365-42.756"></path></svg></svg>