<svg xmlns="http://www.w3.org/2000/svg" version="1.1" xmlns:xlink="http://www.w3.org/1999/xlink" width="1500" height="706" viewBox="0 0 1500 706"><svg xml:space="preserve" width="1500" height="706" data-version="2" data-id="lg_LGZQYC81z5tuBW3ax5" viewBox="0 0 729 706" x="0" y="0"><rect width="100%" height="100%" fill="transparent"></rect><path fill="#111" d="M75.398 450.017a84.066 79.988 0 0 0-3.6 23.068c0 34.176 22.586 63.619 54.916 76.876v7.834c0 49.853 44.718 90.414 99.679 90.414 6.677 0 13.195-.8 19.588-1.945 12.469 24.808 39.71 41.685 72.154 41.685 27.594 0 50.305-12.469 63.194-32.414h45.627a11.356 10.805 0 0 0 11.355-10.805v-48.978a270.967 257.824 0 0 0 91.492-36.045l36.406 34.64a11.356 10.805 0 0 0 16.057 0l64.273-61.155a11.356 10.805 0 0 0 0-15.278l-36.418-34.64a270.945 257.803 0 0 0 37.894-87.054h51.475a11.356 10.805 0 0 0 11.356-10.805v-86.439a11.356 10.805 0 0 0-11.356-10.804h-51.475a270.945 257.803 0 0 0-37.894-87.044l36.418-34.65a11.356 10.805 0 0 0 0-15.279l-64.273-61.155a11.696 11.129 0 0 0-16.057 0l-36.406 34.651a270.99 257.846 0 0 0-91.492-36.045V39.661a11.356 10.805 0 0 0-11.355-10.805h-55.438c-13.423-13.484-32.25-21.61-53.746-21.61a79.058 75.223 0 0 0-67.055 35.516h-20.985c-54.905 0-99.566 40.648-99.566 90.598v3.09c-47.558 3.955-85.008 41.999-85.008 88.254 0 19.47 6.733 37.428 18.01 52.058-33.034 15.948-56.37 50.026-56.37 85.098 0 39.86 28.719 75.699 68.6 88.157M415.6 50.466v47.109a11.356 10.805 0 0 0 9.425 10.653 247.54 235.534 0 0 1 99.646 39.254 11.356 10.805 0 0 0 14.557-1.21l35.01-33.311 48.216 45.877-35.01 33.311a11.356 10.805 0 0 0-1.272 13.852 247.552 235.545 0 0 1 41.267 94.801 11.356 10.805 0 0 0 11.185 8.98h49.51v64.828h-49.51a11.356 10.805 0 0 0-11.185 8.968 247.53 235.523 0 0 1-41.267 94.812 11.356 10.805 0 0 0 1.272 13.852l35.01 33.311-48.216 45.877-35.01-33.311a11.356 10.805 0 0 0-14.557-1.2 247.632 235.62 0 0 1-99.634 39.255 11.356 10.805 0 0 0-9.437 10.642v47.11h-25.062c1.454-5.943 2.294-12.189 2.294-18.769v-111.43c88.653-5.586 159.035-75.795 159.035-161.531S481.485 186.25 392.832 180.664V82.08a85.053 80.928 0 0 0-6.609-31.615zm-22.768 431.652V202.273c76.14 5.532 136.324 66.093 136.324 139.923 0 73.829-60.196 134.39-136.324 139.922M79.906 293.509a92.82 88.318 0 0 0 58.424 19.643 11.356 10.805 0 0 0 0-21.61c-38.847 0-70.461-29.983-70.461-66.838a70.541 67.12 0 0 1 70.461-67.044c18.782 0 36.418 6.959 49.67 19.59a11.367 10.816 0 0 0 16.08-15.268 92.094 87.627 0 0 0-51.215-24.753v-3.869c0-38.032 34.487-68.988 76.867-68.988h11.355a78.762 74.942 0 0 0-1.771 28.103 11.299 10.75 0 0 0 12.582 9.487 11.356 10.805 0 0 0 9.97-11.972 67.464 64.191 0 0 1-.5-7.455 56.471 53.732 0 0 1 56.404-53.679c30.33 0 52.349 22.388 52.349 53.225v533.076c0 30.146-21.383 51.183-51.986 51.183-31.83 0-56.767-22.29-56.767-50.74 0-7.563 1.738-15.202 5.008-22.117a11.356 10.805 0 1 0-20.69-8.893c-4.656 9.833-7.029 20.26-7.029 31.01 0 3.393.33 6.7.795 9.94-4.292.649-8.676 1.06-13.059 1.06-42.436 0-76.968-30.87-76.968-68.805v-1.578A95.784 91.138 0 0 0 205.669 549a11.356 10.805 0 1 0-9.584-19.589c-9.72 4.29-20.179 6.472-31.114 6.472-38.848 0-70.462-28.178-70.462-62.797 0-32.63 28.457-60.204 64.784-62.798a11.356 10.805 0 1 0-1.704-21.544c-31.023 2.204-57.64 18.443-72.687 41.436-28.389-8.168-55.392-34.251-55.392-68.319 0-29.389 21.348-57.665 50.396-68.35"></path><path fill="#111" d="M182.663 249.782a111.671 106.254 0 0 0 18.566 1.416c36.009 0 86.37-15.02 98.714-73.776a11.356 10.805 0 1 0-22.257-4.246c-14.013 66.644-88.051 55.807-91.23 55.3a11.356 10.805 0 0 0-3.793 21.306M267 448.515c-24.494-13.398-49.624-7.023-50.703-6.732a11.322 10.772 0 0 0-7.904 13.204c1.624 5.737 7.858 9.152 13.877 7.639 4.588-1.145 45.57-9.681 60.389 43.76a11.356 10.805 0 1 0 21.962-5.511c-6.893-24.851-19.555-42.463-37.621-52.35"></path></svg></svg>